# xmcd
#
# Track frame offsets:
#	150
#	14347
#	42235
#	58217
#	69670
#	93007
#	119529
#
# Disc length: 1809 seconds
#
# Revision: 0
# Processed by: cddbd v1.5.2PL0 Copyright (c) Steve Scherf et al.
# Submitted via: EasyCDDAExtractor 16.0.0.1
#
DISCID=5b070f07
DTITLE=The Blues Agents - Seven Songs for Seven Quid
DYEAR=1900
DGENRE=
TTITLE0=Corsstown Traffic
TTITLE1=COld Shot
TTITLE2=WHo's Makin' Love
TTITLE3=Aint Got You
TTITLE4=Gangster of Love
TTITLE5=All Over Again
TTITLE6=Highway Chile
EXTD=
EXTT0=
EXTT1=
EXTT2=
EXTT3=
EXTT4=
EXTT5=
EXTT6=
PLAYORDER=
